<svg xmlns="http://www.w3.org/2000/svg" viewBox="0 0 15.03 15"><defs><style>.cls-1{fill:#afbdff;}</style></defs><title>icon-linkedin</title><g id="Layer_2" data-name="Layer 2"><g id="Layer_1-2" data-name="Layer 1"><path class="cls-1" d="M3.5,4.82h-3a.24.24,0,0,0-.24.24v9.7A.24.24,0,0,0,.48,15h3a.24.24,0,0,0,.24-.24V5.06A.24.24,0,0,0,3.5,4.82Z"/><path class="cls-1" d="M2,0A2,2,0,1,0,4,2,2,2,0,0,0,2,0Z"/><path class="cls-1" d="M11.18,4.58A3.57,3.57,0,0,0,8.52,5.69V5.06a.24.24,0,0,0-.24-.24H5.39a.24.24,0,0,0-.24.24v9.7a.24.24,0,0,0,.24.24h3a.25.25,0,0,0,.25-.24V10c0-1.62.43-2.25,1.56-2.25s1.33,1,1.33,2.33v4.72a.24.24,0,0,0,.24.24h3a.24.24,0,0,0,.24-.24V9.44C15,7,14.57,4.58,11.18,4.58Z"/></g></g></svg>