<svg xmlns="http://www.w3.org/2000/svg" viewBox="0 0 18.41 15"><defs><style>.cls-1{fill:#afbdff;}</style></defs><title>icon-twitter</title><g id="Layer_2" data-name="Layer 2"><g id="Layer_1-2" data-name="Layer 1"><path class="cls-1" d="M18.3,1.69a.39.39,0,0,0-.37-.1l-.63.22A4.17,4.17,0,0,0,18.09.47.31.31,0,0,0,18,.1.32.32,0,0,0,17.65,0,23.45,23.45,0,0,1,15.4.91s0,0-.06,0A6.53,6.53,0,0,0,12.74,0a4.13,4.13,0,0,0-4,4.19v.12a11.38,11.38,0,0,1-7-3.59L1.46.41,1.27.78a4.24,4.24,0,0,0,.91,5.13A2.53,2.53,0,0,1,.9,5.34a.39.39,0,0,0-.44,0,.38.38,0,0,0-.15.41A6.07,6.07,0,0,0,3,9.09a2.53,2.53,0,0,1-1.5-.37.44.44,0,0,0-.43,0A.34.34,0,0,0,1,9.16a3.77,3.77,0,0,0,3.41,2.65,7.7,7.7,0,0,1-3.94,1,.46.46,0,0,0-.41.28.43.43,0,0,0,.13.47C1.27,14.47,3.77,15,6.87,15c5.5,0,10-4.91,10-10.94V4A3.1,3.1,0,0,0,18.4,2.06.39.39,0,0,0,18.3,1.69Z"/></g></g></svg>