<svg xmlns="http://www.w3.org/2000/svg" viewBox="0 0 190.08 142.77"><defs><style>.cls-1,.cls-2{fill:#afbdff;}.cls-1{opacity:0.33;}.cls-3,.cls-6,.cls-8,.cls-9{fill:none;}.cls-3,.cls-4,.cls-5{stroke:#3e2a8c;stroke-width:2px;}.cls-3,.cls-4,.cls-5,.cls-6,.cls-8{stroke-linecap:round;}.cls-3,.cls-4,.cls-5,.cls-6,.cls-8,.cls-9{stroke-linejoin:round;}.cls-4{fill:#2f5795;}.cls-5,.cls-7{fill:#f34611;}.cls-6{stroke:#afbdff;stroke-width:1.5px;}.cls-8,.cls-9{stroke:#8db7d5;}</style></defs><title>Asset 1</title><g id="Layer_2" data-name="Layer 2"><g id="Layer_1-2" data-name="Layer 1"><path class="cls-1" d="M7.88,103.36c34.91,63.65,176.2-23.1,181.6-54.59S163.09-1.62,112.73.11-27,39.71,7.88,103.36Z"/><path class="cls-2" d="M69.54,37.83l-26.1-1.22h-.58l-.32,0-.24,0-.36.07-.19,0-.32.1-.22.07-.27.11-.26.1-.21.12-.28.15-.19.12-.28.2a1.92,1.92,0,0,0-.22.18c-.07.06-.15.11-.21.17a5.29,5.29,0,0,0-.41.41h0L16.77,63.12a5.82,5.82,0,0,0-1.41,4.74l4,25.82a5.78,5.78,0,0,0,5.69,4.89l49.65.15h0a3.4,3.4,0,0,0,.45,0h.18a5,5,0,0,0,.56-.09l.22,0,.34-.1.22-.07.33-.13.2-.1.31-.16.18-.1.32-.21.15-.11.32-.26a.52.52,0,0,0,.11-.1c.14-.12.27-.26.4-.39h0a4.7,4.7,0,0,0,.35-.43l.09-.13a4,4,0,0,0,.22-.34l.1-.17.17-.33c0-.06,0-.13.08-.19a3.42,3.42,0,0,0,.13-.34,1.18,1.18,0,0,0,.07-.2c0-.11.07-.23.1-.34a1.42,1.42,0,0,1,.05-.22l.06-.36,0-.22a5.17,5.17,0,0,0,0-.57h0c0-.06,0-.12,0-.17a3.4,3.4,0,0,0,0-.45v0L75,43A5.78,5.78,0,0,0,69.54,37.83Z"/><path class="cls-3" d="M112.84,96.42,93.21,74a4.26,4.26,0,0,0-6-.39L64.71,93.33h0c-.19.15-.38.3-.56.46a19.15,19.15,0,1,0,25.25,28.81c.18-.16.36-.32.53-.49v0l22.48-19.7A4.27,4.27,0,0,0,112.84,96.42Z"/><path class="cls-4" d="M98.73,78h15.12a6.06,6.06,0,0,1,6.06,6.06v2.58a0,0,0,0,1,0,0H92.67a0,0,0,0,1,0,0V84.1A6.06,6.06,0,0,1,98.73,78Z" transform="translate(98.17 -51.86) rotate(48.77)"/><path class="cls-3" d="M104.49,73.76a7.65,7.65,0,1,1,10.08,11.51"/><line class="cls-3" x1="112.19" y1="72.34" x2="112.59" y2="66.17"/><polyline class="cls-3" points="82.85 77.27 80.03 66.5 92.17 55.85"/><polyline class="cls-3" points="66.79 91.35 56.48 87.14 44.34 97.78"/><line class="cls-3" x1="74.9" y1="84.4" x2="63.99" y2="71.96"/><line class="cls-3" x1="117.02" y1="77.84" x2="123.18" y2="78.25"/><polyline class="cls-3" points="108.28 106.27 118.59 110.49 130.74 99.84"/><polyline class="cls-3" points="92.22 120.35 95.05 131.12 82.9 141.77"/><line class="cls-3" x1="100.17" y1="113.22" x2="111.08" y2="125.67"/><polyline class="cls-3" points="103.04 85.2 74.47 110.25 57.97 104.66"/><path class="cls-5" d="M77.85,127.33A19.16,19.16,0,0,1,58,104.66l16.49,5.59,3.39,17.08"/><path class="cls-6" d="M128.71,26.85l-9.58-10.93a2.09,2.09,0,0,0-2.94-.2l-11,9.62h0l-.27.22a9.35,9.35,0,0,0,12.32,14.06l.26-.24h0l11-9.62A2.07,2.07,0,0,0,128.71,26.85Z"/><path class="cls-6" d="M122.24,17.88h6.55a3.37,3.37,0,0,1,3.37,3.37v.84a0,0,0,0,1,0,0H118.87a0,0,0,0,1,0,0v-.84A3.37,3.37,0,0,1,122.24,17.88Z" transform="translate(57.82 -87.58) rotate(48.77)"/><path class="cls-6" d="M124.64,15.79a3.73,3.73,0,1,1,4.92,5.62"/><line class="cls-6" x1="128.39" y1="15.1" x2="128.59" y2="12.09"/><polyline class="cls-6" points="114.08 17.5 112.7 12.25 118.62 7.05"/><polyline class="cls-6" points="106.24 24.38 101.2 22.32 95.28 27.51"/><line class="cls-6" x1="110.19" y1="20.98" x2="104.87" y2="14.91"/><line class="cls-6" x1="130.75" y1="17.78" x2="133.76" y2="17.98"/><polyline class="cls-6" points="126.49 31.66 131.52 33.72 137.45 28.52"/><polyline class="cls-6" points="118.65 38.53 120.03 43.79 114.1 48.98"/><line class="cls-6" x1="122.53" y1="35.05" x2="127.85" y2="41.12"/><polyline class="cls-6" points="123.93 21.38 109.98 33.6 101.93 30.87"/><line class="cls-6" x1="109.98" y1="33.6" x2="111.63" y2="41.94"/><path class="cls-7" d="M155.48,57.38l-3.77-4.9h0l-.09-.1-.05,0,0,0-.07-.05,0,0-.07-.05,0,0-.06,0-.06,0-.06,0-.07,0H151l-.07,0h-.07l-.06,0h-.14l-7.83-.24a1.37,1.37,0,0,0-1.07.47l-4.06,4.67a1.36,1.36,0,0,0,0,1.77l7.55,9h0l.07.08,0,0h0l.1.09,0,0,.07,0,.05,0,.07,0,.05,0,.08,0,.05,0,.08,0h0l.1,0h.34l.09,0h0l.08,0,0,0,.08,0h.05l.07,0,0,0,.08,0,0,0,.11-.08h0l0,0,.08-.07h0l8.09-8.53A1.36,1.36,0,0,0,155.48,57.38Z"/><path class="cls-8" d="M87.29,29.65c-18.43,3-35.75,11.31-50.78,22.4C26.16,59.7,16.43,69.27,12.71,81.6s.47,27.73,12,33.38"/><path class="cls-8" d="M84.66,44.06c-7.72.81-15.11,3.49-22.28,6.46C53.15,54.33,44,58.73,36.53,65.39S23.46,81.27,23,91.25s5.18,20.47,14.54,24"/><path class="cls-8" d="M58.87,38.17c5,2.9,6.78,4.89,9.24,10.09"/><path class="cls-8" d="M42.54,47.84c3.24,1,6.51,5.07,7.8,8.21"/><path class="cls-8" d="M23.34,63.82c4.2.95,7.24,2.42,9.61,5.13"/><path class="cls-8" d="M23.37,88.39a27.22,27.22,0,0,0-11.71-1.8"/><path class="cls-8" d="M149.34,29.23c11.4,5.37,23.23,11.07,31,21,2.12,2.68,4,6,3.36,9.36s-3.51,5.81-6.39,7.67C166,74.59,152.25,77.58,140.77,84.76c-1.77,1.11-3.57,2.42-4.42,4.33s-.33,4.58,1.58,5.44"/><path class="cls-9" d="M155.36,86.05a21.38,21.38,0,0,0-10,6.52"/></g></g></svg>