<svg xmlns="http://www.w3.org/2000/svg" viewBox="0 0 195.73 134.69"><defs><style>.cls-1,.cls-2{fill:#afbdff;}.cls-1{opacity:0.33;}.cls-3{fill:#f34611;}.cls-4{fill:#7a9fc3;}.cls-5{fill:#fff;}.cls-6{fill:#5f88ba;}.cls-7{fill:#3d6ba7;}.cls-8{fill:#2f5795;}.cls-9{fill:#193264;}.cls-10{fill:none;stroke:#8db7d5;stroke-linejoin:round;}</style></defs><title>Asset 2</title><g id="Layer_2" data-name="Layer 2"><g id="Layer_1-2" data-name="Layer 1"><path class="cls-1" d="M0,50.84c0,50,13,114.26,129.23,67.81s51.67-107.46,18-88.37-34.65-2.62-56.14-17.61S0,.86,0,50.84Z"/><path class="cls-2" d="M162.31,43.58l-.6-6.36h0a.68.68,0,0,0,0-.14.19.19,0,0,0,0-.07.13.13,0,0,0,0-.06l0-.09a.08.08,0,0,0,0,0l0-.08a.08.08,0,0,1,0-.05.21.21,0,0,1,0-.06l0-.06,0,0,0-.07,0,0-.06-.06-.05,0,0,0-.11-.09h0l-6.71-4.51a1.41,1.41,0,0,0-1.2-.18l-6.11,1.85a1.4,1.4,0,0,0-1,1.54l1.65,12h0a.43.43,0,0,1,0,.11.06.06,0,0,1,0,0h0s0,.09,0,.13a.17.17,0,0,1,0,.05l0,.08,0,0,.05.08,0,0a.35.35,0,0,0,.05.08l0,0,.06.06,0,0,.07.07,0,0,.11.08h0l.12.07,0,0,.09,0,0,0,.08,0h.05l.09,0h.51l.11,0h0l11.76-3A1.42,1.42,0,0,0,162.31,43.58Z"/><polygon class="cls-2" points="52.12 4.98 20.53 19.85 17.62 54.65 46.29 74.57 77.88 59.7 80.8 24.9 52.12 4.98"/><polygon class="cls-2" points="87.55 0 75.86 5.5 74.78 18.38 85.39 25.75 97.08 20.25 98.16 7.37 87.55 0"/><polyline class="cls-3" points="100.91 105.27 140.67 75.14 131.91 64.48 104.52 62.18"/><polyline class="cls-3" points="100.91 105.27 66.71 68.95 77.13 59.88 104.52 62.18"/><path class="cls-4" d="M132.4,63,73,58l2-24.36,59.4,5a12.22,12.22,0,0,1,11.16,13.2h0A12.21,12.21,0,0,1,132.4,63Z"/><path class="cls-5" d="M132.26,64.72,71.13,59.6l2.33-27.8,61.13,5.12a13.95,13.95,0,0,1-2.33,27.8ZM74.87,56.44l57.68,4.83a10.49,10.49,0,1,0,1.75-20.9L76.62,35.53Z"/><path class="cls-6" d="M82.41,54.82,52,77.63,37.27,58.1,67.73,35.28a12.23,12.23,0,0,1,17.11,2.43h0A12.22,12.22,0,0,1,82.41,54.82Z"/><path class="cls-5" d="M51.61,80.05,34.85,57.75,66.69,33.9A13.95,13.95,0,0,1,83.45,56.2h0ZM39.69,58.44,52.3,75.21,81.37,53.44a10.49,10.49,0,1,0-12.6-16.77Z"/><path class="cls-7" d="M53.77,58.62,100,106,82.52,123.08,36.28,75.69a12.22,12.22,0,0,1,.22-17.28h0A12.2,12.2,0,0,1,53.77,58.62Z"/><path class="cls-5" d="M82.49,125.52,35,76.89a13.94,13.94,0,0,1,.25-19.72A14,14,0,0,1,55,57.41L102.46,106ZM45.91,56.71a10.48,10.48,0,0,0-8.39,17.77l45,46.15,15-14.65-45-46.15A10.41,10.41,0,0,0,45.91,56.71Z"/><path class="cls-8" d="M87.85,111.34,138.42,68.6l15.77,18.66L103.63,130a12.21,12.21,0,0,1-17.22-1.44h0A12.22,12.22,0,0,1,87.85,111.34Z"/><path class="cls-5" d="M94.58,134.57A13.94,13.94,0,0,1,86.74,110h0l51.88-43.86,18,21.3-51.88,43.87A13.91,13.91,0,0,1,94.58,134.57ZM89,112.66a10.49,10.49,0,0,0,13.54,16l49.25-41.62L138.21,71,89,112.66Z"/><path class="cls-9" d="M141.9,84.06,123.29,58.57l19.54-14.68,18.61,25.49A12.22,12.22,0,0,1,159,86.48h0A12.22,12.22,0,0,1,141.9,84.06Z"/><path class="cls-5" d="M150.51,90.61a13.91,13.91,0,0,1-10-5.51l0,0L120.89,58.21l22.3-16.76,19.64,26.91a13.93,13.93,0,0,1-12.32,22.25ZM143.29,83A10.51,10.51,0,0,0,158,85.1a10.5,10.5,0,0,0,2.08-14.69L142.46,46.32,125.69,58.93Z"/><path class="cls-4" d="M110.83,36.66l23.61,2a12.22,12.22,0,0,1,11.16,13.2h0A12.21,12.21,0,0,1,132.4,63l-23.61-2"/><path class="cls-5" d="M132.26,64.72l-23.61-2,.29-3.45,23.61,2a10.49,10.49,0,1,0,1.75-20.9l-23.61-2,.29-3.45,23.61,2a13.95,13.95,0,0,1-2.33,27.8Z"/><polygon class="cls-5" points="74.48 40.38 70.31 42.35 69.92 46.95 73.71 49.58 77.88 47.61 78.27 43.02 74.48 40.38"/><polygon class="cls-5" points="132.15 45.22 127.97 47.18 127.59 51.78 131.37 54.41 135.55 52.45 135.93 47.85 132.15 45.22"/><polygon class="cls-5" points="95.92 116.92 91.75 118.89 91.36 123.49 95.15 126.12 99.32 124.15 99.71 119.56 95.92 116.92"/><polygon class="cls-5" points="153.33 73.13 149.16 75.09 148.77 79.69 152.56 82.32 156.73 80.36 157.12 75.76 153.33 73.13"/><polygon class="cls-5" points="46.85 64.2 42.67 66.17 42.29 70.77 46.08 73.4 50.25 71.43 50.64 66.83 46.85 64.2"/><path class="cls-10" d="M26,68.2C17.76,74.29,15.85,86.5,19.68,96S31.9,112.41,41,117.09c5.27,2.72,11,4.83,16.86,5.23s12.09-1,16.69-4.79"/><path class="cls-10" d="M27.53,92.53a25.1,25.1,0,0,0,16.32,14.19"/><path class="cls-10" d="M162.75,58.49c6.08,3,12.22,6.39,16.59,11.6s6.64,12.69,4,19c-1.87,4.46-5.85,7.65-9.84,10.38a114.53,114.53,0,0,1-22.84,12.1"/><path class="cls-10" d="M175.94,78.13a8,8,0,0,1-2.38,9.63"/></g></g></svg>