<svg xmlns="http://www.w3.org/2000/svg" viewBox="0 0 202.72 147.3"><defs><style>.cls-1,.cls-2{fill:#afbdff;}.cls-1{opacity:0.33;}.cls-3{fill:#143cb4;}.cls-4{fill:#8688fd;}.cls-5{fill:#f34611;}.cls-6{fill:#c9260a;}.cls-7{fill:none;stroke:#8db7d5;stroke-linejoin:round;}</style></defs><title>Asset 4</title><g id="Layer_2" data-name="Layer 2"><g id="Warstwa_1" data-name="Warstwa 1"><path class="cls-1" d="M13.2,64.59c100.31-155.95,214.93,15.5,164,46.8S-49,161.34,13.2,64.59Z"/><path class="cls-2" d="M175.65,86.71,171.56,60.9h0a5.59,5.59,0,0,0-.12-.56l-.09-.3-.08-.23a3.45,3.45,0,0,0-.14-.34l-.08-.18-.16-.3-.11-.19c-.05-.09-.11-.17-.16-.25s-.11-.15-.16-.22-.11-.13-.16-.19-.13-.17-.21-.25l-.15-.15-.25-.24-.22-.18-.21-.17-.48-.32h0L140.2,40.16a5.77,5.77,0,0,0-4.93-.42L110.8,48.89a5.77,5.77,0,0,0-3.64,6.56l9.91,48.65v0c0,.15.07.29.11.43s0,.12,0,.18h0c.06.18.13.36.2.53s.07.13.1.2a3.18,3.18,0,0,0,.16.32l.12.2.19.29.13.18.23.27.14.16a3.19,3.19,0,0,0,.26.26l.14.13.32.26.12.09a4.76,4.76,0,0,0,.47.31h0a4.74,4.74,0,0,0,.5.26l.14.06.38.15.18,0,.37.11.2,0,.35.06.22,0,.35,0h.23l.36,0h.22l.56-.09h0l.17,0c.15,0,.3-.07.44-.12h0L171.74,93.1A5.76,5.76,0,0,0,175.65,86.71Z"/><path class="cls-3" d="M87,33.79V40.3l.5.5L92.66,37a5.52,5.52,0,0,0,2.75-4.78v-.33c.66-.57-1.41-2.13-2.55-1.47Z"/><path class="cls-4" d="M87.49,34.3v6.5l5.67-3.29a5.52,5.52,0,0,0,2.76-4.78V32.4a1.7,1.7,0,0,0-2.55-1.48Z"/><path class="cls-3" d="M87,47.17v6.5l.5.51,5.17-3.8a5.53,5.53,0,0,0,2.75-4.78v-.34c.66-.57-1.41-2.12-2.55-1.47Z"/><path class="cls-4" d="M87.49,47.67v6.51l5.67-3.3a5.52,5.52,0,0,0,2.76-4.78v-.33a1.7,1.7,0,0,0-2.55-1.48Z"/><path class="cls-3" d="M87,60.54v6.51l.5.5,5.17-3.8A5.53,5.53,0,0,0,95.41,59v-.33c.66-.57-1.41-2.13-2.55-1.48Z"/><path class="cls-4" d="M87.49,61v6.51l5.67-3.29a5.52,5.52,0,0,0,2.76-4.78v-.34a1.7,1.7,0,0,0-2.55-1.47Z"/><path class="cls-3" d="M87,73.91v6.51l.5.51,5.17-3.8a5.53,5.53,0,0,0,2.75-4.78V72c.66-.57-1.41-2.13-2.55-1.47Z"/><path class="cls-4" d="M87.49,74.42v6.51l5.67-3.3a5.52,5.52,0,0,0,2.76-4.78v-.33A1.7,1.7,0,0,0,93.37,71Z"/><path class="cls-3" d="M82,93.22l-5.6,3.14v5.88c1,2.74,1.85,2.78,3.34,1.92h0A4.46,4.46,0,0,0,82,100.25l.5-6.52Z"/><path class="cls-4" d="M82.48,93.73l-5.6,3.13v5.88a2.23,2.23,0,0,0,3.34,1.93h0a4.52,4.52,0,0,0,2.26-3.91Z"/><path class="cls-3" d="M72.55,98.6,67,101.74v5.87c1,2.75,1.86,2.79,3.34,1.93h0a4.46,4.46,0,0,0,2.25-3.91l.5-6.52Z"/><path class="cls-4" d="M73.06,99.11l-5.6,3.13v5.88a2.23,2.23,0,0,0,3.34,1.93h0a4.52,4.52,0,0,0,2.26-3.91Z"/><path class="cls-3" d="M62.38,104.32l-5.59,3.13v5.88c1,2.75,1.86,2.79,3.35,1.93h0a4.53,4.53,0,0,0,2.25-3.91l.5-6.53Z"/><path class="cls-4" d="M62.89,104.83,57.29,108v5.88a2.23,2.23,0,0,0,3.35,1.93h0a4.5,4.5,0,0,0,2.25-3.9Z"/><path class="cls-3" d="M53,109.7l-5.6,3.13v5.88c1,2.75,1.86,2.79,3.35,1.93h0A4.53,4.53,0,0,0,53,116.73l.5-6.53Z"/><path class="cls-4" d="M53.48,110.21l-5.6,3.12v5.88a2.22,2.22,0,0,0,3.34,1.93h0a4.52,4.52,0,0,0,2.26-3.91Z"/><path class="cls-3" d="M85.4,86.46l1.59-66c-2.68-2.17-3.86-4-5.69-2.93L41.51,40.13A6.75,6.75,0,0,0,38.1,46v66.58c0,2.1,3.09,4.13,4.26,5.3L82,92.32A6.74,6.74,0,0,0,85.4,86.46Z"/><path class="cls-4" d="M88.57,89.47V22.89a2.74,2.74,0,0,0-4.09-2.39L44.68,43.14A6.75,6.75,0,0,0,41.27,49v66.58a2.74,2.74,0,0,0,4.1,2.38L85.16,95.33A6.74,6.74,0,0,0,88.57,89.47Z"/><path class="cls-3" d="M83.91,83.88,85.18,31c-2.14-1.74-3.09-3.18-4.56-2.35L48.75,46.78A5.4,5.4,0,0,0,46,51.47v53.34c0,1.68,2.48,3.3,3.42,4.24L81.17,88.58A5.4,5.4,0,0,0,83.91,83.88Z"/><path class="cls-4" d="M86.45,86.29V33a2.19,2.19,0,0,0-3.28-1.91L51.29,49.19a5.39,5.39,0,0,0-2.73,4.69v53.34a2.2,2.2,0,0,0,3.28,1.91L83.72,91A5.4,5.4,0,0,0,86.45,86.29Z"/><path class="cls-3" d="M80.29,20.51l.49-5.75c0-1.42-2-2.78-3.25-2.07h0a5.32,5.32,0,0,0-2.66,4.59v6.35l.49.49Z"/><path class="cls-4" d="M80.78,21V14.78A1.85,1.85,0,0,0,78,13.18h0a5.31,5.31,0,0,0-2.65,4.59v6.35Z"/><path class="cls-3" d="M70.45,26.32l.48-5.75c0-1.42-2-2.77-3.25-2.07h0A5.31,5.31,0,0,0,65,23.09v6.35l.49.49Z"/><path class="cls-4" d="M70.93,26.81V20.59A1.84,1.84,0,0,0,68.17,19h0a5.31,5.31,0,0,0-2.65,4.59v6.35Z"/><path class="cls-3" d="M60.36,31.54l.49-5.76c0-1.42-2-2.77-3.25-2.06h0A5.28,5.28,0,0,0,55,28.31v6.35l.49.49Z"/><path class="cls-4" d="M60.85,32V25.8a1.84,1.84,0,0,0-2.76-1.6h0a5.31,5.31,0,0,0-2.65,4.59v6.36Z"/><path class="cls-3" d="M50.52,37.35,51,31.59c0-1.41-2-2.77-3.25-2.06h0a5.28,5.28,0,0,0-2.65,4.59v6.35l.49.49Z"/><path class="cls-4" d="M51,37.84V31.61A1.84,1.84,0,0,0,48.25,30h0A5.28,5.28,0,0,0,45.6,34.6V41Z"/><path class="cls-3" d="M39.27,56.84l.5.51-.5,6-4.94,3.58a2.86,2.86,0,0,1-3.48-2.54h0a4.67,4.67,0,0,1,2.34-4Z"/><path class="cls-4" d="M39.77,57.35v6.5L34.64,66.8a2.19,2.19,0,0,1-3.29-1.9h0a4.69,4.69,0,0,1,2.35-4.06Z"/><path class="cls-3" d="M39.27,71.11l.5.51-.5,6L34.33,81.2a2.86,2.86,0,0,1-3.48-2.54h0a4.67,4.67,0,0,1,2.34-4Z"/><path class="cls-4" d="M39.77,71.62v6.51l-5.13,3a2.2,2.2,0,0,1-3.29-1.91h0a4.69,4.69,0,0,1,2.35-4.06Z"/><path class="cls-3" d="M39.27,85.39l.5.5-.5,6-4.94,3.58a2.87,2.87,0,0,1-3.48-2.54h0a4.68,4.68,0,0,1,2.34-4.06Z"/><path class="cls-4" d="M39.77,85.89V92.4l-5.13,2.95a2.2,2.2,0,0,1-3.29-1.91h0a4.68,4.68,0,0,1,2.35-4Z"/><path class="cls-3" d="M39.27,99.66l.5.5-.5,6-4.94,3.58a2.87,2.87,0,0,1-3.48-2.54h0a4.69,4.69,0,0,1,2.34-4.06Z"/><path class="cls-4" d="M39.77,100.16v6.51l-5.13,3a2.2,2.2,0,0,1-3.29-1.91h0a4.68,4.68,0,0,1,2.35-4Z"/><path class="cls-5" d="M148.89,80.43a3.32,3.32,0,0,1-.41,3c-1.93,2.85-3.93,5.67-5.9,8.5,0,0-.07,0-.1.06s-.37-.16-.42,0,.18.17.32.18l-2.67,3.88c-.07.11-.14.27-.32.12a.32.32,0,0,0-.52,0c-.23.25,0,.4.12.56l0,.2c0,.17-.15.22-.34.24s-.52.17-.43.47c.17.6-.23.73-.63.89l-.07,0a4.62,4.62,0,0,0-.28-.48.38.38,0,0,0-.5-.11.31.31,0,0,0-.21.44c.24.57-.06.73-.55.76l-.15-.07c-.23-.21-.33-.68-.8-.38-.26.17-.23.4-.15.65a.4.4,0,0,1-.23.51.38.38,0,0,1-.54-.1c-.28-.57-.67-.35-1.07-.22l-.09,0c-.09-.14-.16-.29-.26-.42a.4.4,0,0,0-.55-.11.37.37,0,0,0-.18.46c0,.21.29.47-.1.62s-.61.2-.81-.23a.34.34,0,0,0-.51-.16c-.21.14-.35.3-.26.56s.1.53-.23.66a.48.48,0,0,1-.63-.25c-.33-.57-.65-.11-1,0l-.08,0a2.53,2.53,0,0,0-.19-.45.43.43,0,0,0-.58-.18c-.23.11-.25.28-.19.51s.23.47-.14.6-.57.21-.75-.2a.36.36,0,0,0-.56-.19.44.44,0,0,0-.24.56c.08.25.1.48-.19.62a.47.47,0,0,1-.67-.25c-.33-.59-.66,0-1,0l0,0a3,3,0,0,0-.23-.44.4.4,0,0,0-.53-.16c-.23.1-.27.26-.22.5s.27.44-.06.59a.63.63,0,0,1-.78-.17c-.14-.15-.3-.38-.57-.19s-.41.32-.24.65a.38.38,0,0,1-.2.52c-.2.12-.46.12-.55-.07-.33-.64-.7-.36-1.09-.11l-.15,0a.67.67,0,0,0-.32-.72.35.35,0,0,0-.44.07c-.27.23-.17.5-.07.77,0,0,0,0,0,.06l0,.16-.56.27c-.36.12-.3-.25-.43-.38s-.28-.3-.52-.2a.45.45,0,0,0-.3.49,1.87,1.87,0,0,0,.09.41v.19c-.27.1-.49.34-.8.37a1.55,1.55,0,0,0-.15-.46c-.13-.17-.29-.36-.56-.19s-.35.29-.24.55a.38.38,0,0,0,.55.22l.41-.14c.25.26.42.56.16.87a.43.43,0,0,1-.73,0c-.16-.2-.25-.49-.61-.27a.51.51,0,0,0-.22.77c0,.08.11.25,0,.27-.6.2-.5.66-.51,1.14,0,.27-.37.33-.63.4a2.13,2.13,0,0,0-.23-.42.43.43,0,0,0-.64-.11.37.37,0,0,0-.14.53c.13.23.29.41.59.24.14-.07.28-.16.45-.08.21.47.28.9-.35,1.11a.86.86,0,0,1-.41-.43c-.11-.31-.33-.3-.58-.18a.37.37,0,0,0-.21.5.4.4,0,0,0,.54.32,1,1,0,0,1,.6-.06c.14.29.26.61-.08.81a.51.51,0,0,1-.73-.23c-.12-.19-.29-.34-.56-.14-.43.33-.12.6,0,.89v.27a.52.52,0,0,0-.68.24c-.19.32.09.56.23.82l0,.07c-.82.2-.87.28-.63,1l0,.15c-.37.19-.78.35-.52.9a.2.2,0,0,1-.1.3.81.81,0,0,0-.33,1.1v0c-.37.3-.8.59-.44,1.17l0,.15c-.51.23-.83.53-.35,1.08v.29a.43.43,0,0,0-.59.15.51.51,0,0,0,.06.58c.14.24.36.11.55.06s.4-.06.48.2.22.45-.09.64-.5.23-.3.61a.45.45,0,0,0,.68.24c.25-.12.41.08.53.28s-.09.39-.22.55-.43.33-.2.67.39.21.63.12l.3-.09h0c.22.41.37.89,1,.62.33-.14.36.25.48.43s-.08.3-.24.4-.42.31-.27.59a.46.46,0,0,0,.63.2c.27-.1.31-.28.2-.54s-.19-.49.19-.58c.22-.05.48-.12.6.13s.21.51-.16.67a.39.39,0,0,0-.25.59.48.48,0,0,0,.68.22,2.49,2.49,0,0,1,.29-.11l.17,0c0,.57.25.86.86.58a.29.29,0,0,1,.45.16c.13.33.33.51.69.3a.47.47,0,0,1,.23,0c.32.79,1.44.23,1.72,1l-.11.2a.14.14,0,0,1-.09,0l-.12.07c-.27.18-.59.35-.24.74.1.12,0,.23,0,.33l-1.92,2.71c-.09-.18-.17-.38-.42-.3a.21.21,0,0,0-.12.18c.06.27.28.21.48.2-.73,1.11-1.38,2.28-2.76,2.75a3.91,3.91,0,0,1-3.11-.12l-15.05-7.58s0-.06-.08-.08a.62.62,0,0,1,0-.48c.49-1,1-2,1.46-3l2.25-4.57c1-2,2-4,3-6,.75-1.52,1.51-3,2.25-4.57,1-2,2-4,3-6,.88-1.79,1.77-3.56,2.65-5.35s1.7-3.49,2.55-5.25c.07-.16.29-.32.18-.49s-.38,0-.57,0c-4.47,1.13-8.93,2.27-13.4,3.38a1.24,1.24,0,0,0-.89.75q-1.74,3.6-3.49,7.19c-1,2.11-2.11,4.21-3.14,6.33s-2,4.09-3,6.13c-1.09,2.23-2.21,4.44-3.31,6.66l-27-13.6A3.74,3.74,0,0,1,55,104.07c.14-.15.29-.29.42-.45,3-3.67,5.93-7.32,8.87-11a65.43,65.43,0,0,0,4.32-5.51c1.36-2.13,2.68-4.29,4-6.42,1.18-1.83,2.27-3.72,3.45-5.55.47-.75,1-1.48,1.41-2.24a.46.46,0,0,1,.7-.23,14.83,14.83,0,0,0,1.46.51.65.65,0,0,1,.52.76C80,78.3,79.79,82.66,79.62,87c0,1.11-.07,2.22-.1,3.32a32.51,32.51,0,0,0,1.7-3,25.14,25.14,0,0,1,3-3.8c1.76-2.11,3.57-4.18,5.35-6.28a38.24,38.24,0,0,1,3.74-3.9c.18-.16.37-.4.59,0a20.27,20.27,0,0,1,2.25,3.57c.16.46.3.93.47,1.4q.9,2.6,1.81,5.21c.5,1.44,1,2.89,1.49,4.33.23-.07.26-.25.33-.39.58-1.17,1.15-2.36,1.73-3.53,1-2.06,2-4.11,3.05-6.17,1.47-3,2.91-6,4.38-9,1.21-2.47,2.47-4.91,3.66-7.38a4.53,4.53,0,0,0,.72-1.81c2.24-.58,4.47-1.22,6.73-1.71a3.73,3.73,0,0,1,3,.65,28.35,28.35,0,0,1,2.74,2.26c-.19.31-.42.61-.58.94-.59,1.17-1.15,2.36-1.72,3.53-.85,1.73-1.72,3.45-2.57,5.18-1.2,2.45-2.38,4.9-3.58,7.34-.85,1.73-1.72,3.45-2.56,5.18-1,2.06-2,4.13-3,6.19-.07.16-.3.31-.14.49s.35,0,.52,0L121,87.5Zm-47.55,39.29v.06l0,0v-.07Zm6.28-17,.06,0-.06,0h0Zm27.53-10.53h-.06l0,0h.07Zm-24.24,8.93h-.06l.05,0c0,.08.07.18.2.14s0,0,0,0S111,101.12,110.91,101.12Zm-6.39,10c-.07,0-.17-.07-.2,0s.06.14.14.14.07-.11.07-.18v-.06Zm-.89,9.53.29-.06s-.06-.1-.1-.11-.24,0-.21.16v.07Zm31.94-25.8c-.16,0-.35-.08-.4.15s.11.16.23.17c.3,0,.21-.15.19-.31v-.06Zm-1,3.8c-.11-.27-.28-.48-.55-.42a.42.42,0,0,0-.36.54.4.4,0,0,0,.55.32C134.41,99.06,134.64,99,134.58,98.68Zm-14.16,3.72c.16-.17.49-.19.47-.49a.43.43,0,0,0-.5-.42c-.18,0-.45.16-.39.44A.5.5,0,0,0,120.42,102.4Zm-3.37,24.29c-.08-.21-.13-.46-.45-.34s-.45.26-.34.6a.35.35,0,0,0,.52.25C117,127.12,117.17,127,117.05,126.69Zm13-27c-.12-.25-.27-.46-.56-.38a.43.43,0,1,0,.18.84C129.86,100.13,130.06,100,130,99.73Zm-4.58,1c-.13-.23-.29-.44-.58-.33a.4.4,0,0,0-.29.57.39.39,0,0,0,.54.26C125.33,101.17,125.53,101.05,125.44,100.75Zm-11.69,5.35c-.16-.16-.21-.47-.55-.36a.44.44,0,0,0,.21.85C113.61,106.52,113.81,106.39,113.75,106.1Zm-2.89,16.82c-.18,0-.3.17-.23.46s.22.44.53.37.43-.21.3-.48S111.3,122.76,110.86,122.92Zm-2.18-3.47c-.06-.25-.15-.44-.46-.34s-.42.26-.33.55a.37.37,0,0,0,.52.28C108.64,119.86,108.81,119.73,108.68,119.45Zm.87,1.83c-.14-.4-.24-.64-.51-.55s-.52.22-.41.56a.41.41,0,0,0,.56.31C109.41,121.52,109.58,121.38,109.55,121.28Zm-.29-8.68c-.17.11-.37.2-.29.51s.28.3.52.27.33-.21.27-.44A.4.4,0,0,0,109.26,112.6Zm4.92,12.89c-.25.07-.42.24-.38.49a.43.43,0,0,0,.51.34c.29-.07.34-.31.27-.59S114.4,125.41,114.18,125.49Zm16.65-26.32a.35.35,0,0,0,.48.24.39.39,0,0,0,.3-.51.34.34,0,0,0-.47-.27A.46.46,0,0,0,130.83,99.17Zm-22.24,16.66a.36.36,0,0,0,.27-.43c0-.25-.21-.43-.47-.37a.38.38,0,0,0-.34.48C108.11,115.79,108.3,115.85,108.59,115.83Zm13.48-15.09a.47.47,0,0,0-.35.59c0,.23.24.27.43.24a.41.41,0,0,0,.34-.5A.36.36,0,0,0,122.07,100.74Zm14.14-2.9c-.13-.15-.21-.38-.47-.29a.45.45,0,0,0-.35.55c.05.27.28.29.48.25S136.18,98.07,136.21,97.84ZM109,114.62c.26-.07.32-.27.28-.51a.35.35,0,0,0-.45-.3.43.43,0,0,0-.35.5C108.54,114.56,108.74,114.66,109,114.62ZM127.08,100c-.11-.17-.2-.37-.47-.3a.43.43,0,0,0-.34.51c0,.26.21.32.44.29S127.05,100.23,127.08,100Zm-11.67,25.94c-.27.09-.44.26-.39.51a.38.38,0,0,0,.52.3c.21,0,.39-.2.32-.45S115.68,125.87,115.41,125.93Zm-1.25-21.11a.46.46,0,0,0-.52-.27.36.36,0,0,0-.28.46c.07.2.18.44.47.36S114.16,105.1,114.16,104.82Zm1.68-2.26c-.24.09-.41.25-.37.5a.36.36,0,0,0,.45.3c.21,0,.4-.17.37-.41A.44.44,0,0,0,115.84,102.56Zm-6,20.72c.24-.1.37-.23.29-.51s-.12-.4-.39-.32-.41.23-.37.48A.4.4,0,0,0,109.87,123.28Zm14.33-23a.5.5,0,0,0-.48-.3.41.41,0,0,0-.35.44.39.39,0,0,0,.5.33C124.1,100.73,124.16,100.5,124.2,100.29Zm4.56-1.07c-.12-.17-.25-.34-.48-.3a.41.41,0,0,0-.34.5.4.4,0,0,0,.5.27C128.67,99.65,128.72,99.43,128.76,99.22Zm-17.71,8.51c-.14.11-.33.22-.26.47s.19.37.44.31.36-.18.29-.44A.41.41,0,0,0,111.05,107.73Zm26.35-11c-.21.1-.38.23-.34.47a.4.4,0,0,0,.51.31.39.39,0,0,0,.3-.47A.45.45,0,0,0,137.4,96.77ZM110.21,111.7a.46.46,0,0,0-.48-.32.37.37,0,0,0-.26.49c.06.3.31.33.53.28S110.21,111.88,110.21,111.7Zm7.48-9.11c.17-.09.33-.21.23-.46s-.21-.41-.49-.29-.35.21-.27.46A.4.4,0,0,0,117.69,102.59Zm-4.64,23.23c.22-.06.42-.19.36-.42s-.19-.43-.48-.35a.39.39,0,0,0-.31.46C112.67,125.74,112.79,125.88,113.05,125.82ZM110.7,110.5c-.11-.2-.24-.38-.53-.29s-.33.18-.29.4a.41.41,0,0,0,.5.35A.39.39,0,0,0,110.7,110.5Zm1.49,14.38c-.08-.17-.2-.34-.4-.28s-.46.17-.37.46.19.38.45.3A.46.46,0,0,0,112.19,124.88Zm-4.27-3.79c.18-.06.35-.17.3-.39a.4.4,0,0,0-.51-.32c-.23.06-.27.25-.22.49S107.72,121.12,107.92,121.09Zm11.7-19.78a.38.38,0,0,0-.5-.24.39.39,0,0,0-.3.47.33.33,0,0,0,.46.28A.46.46,0,0,0,119.62,101.31Zm-11.23,15.26c-.1-.21-.26-.36-.48-.31s-.31.25-.27.48a.32.32,0,0,0,.45.28A.39.39,0,0,0,108.39,116.57Zm2.7-7.31c-.1-.17-.19-.35-.46-.28s-.31.22-.25.46.18.36.43.28S111.16,109.52,111.09,109.26Zm-.62,14.95c-.15.1-.37.21-.26.45a.4.4,0,0,0,.46.23.36.36,0,0,0,.25-.48A.31.31,0,0,0,110.47,124.21ZM109,122.29c-.12-.15-.24-.29-.5-.19s-.3.2-.25.41a.34.34,0,0,0,.46.27A.43.43,0,0,0,109,122.29Zm24.34-24.15c-.12-.16-.25-.32-.48-.28a.39.39,0,0,0-.34.44.38.38,0,0,0,.5.31C133.23,98.57,133.29,98.36,133.32,98.14ZM112,106.78c-.13-.09-.23-.29-.44-.21s-.38.17-.33.43a.34.34,0,0,0,.46.28C111.93,107.22,112,107,112,106.78Zm9.24-6.12c-.07-.23-.23-.38-.45-.32a.36.36,0,0,0-.3.41.4.4,0,0,0,.47.31A.35.35,0,0,0,121.26,100.66Zm-7.16,2.71c-.12.09-.33.18-.25.44s.19.37.44.27.36-.21.26-.46S114.39,103.28,114.1,103.37Zm20.37-6.25c-.14.13-.35.22-.25.45s.18.41.44.26.36-.18.28-.42A.42.42,0,0,0,134.47,97.12Zm-4.38,1.82c.07-.15.37-.18.28-.46a.35.35,0,0,0-.41-.27c-.19,0-.39.18-.3.43A.37.37,0,0,0,130.09,98.94Zm-4.28.6c-.09-.19-.24-.33-.43-.27s-.39.2-.28.45.18.36.4.26S125.88,99.8,125.81,99.54Zm-18,18.19c0-.1-.12-.29-.37-.21s-.37.22-.3.46a.38.38,0,0,0,.48.27C107.88,118.19,107.92,118,107.85,117.73ZM112,105.35c-.17.1-.34.21-.28.43a.33.33,0,0,0,.41.27c.19,0,.37-.13.32-.37A.43.43,0,0,0,112,105.35ZM136.37,97a.3.3,0,0,0,.2-.38.32.32,0,0,0-.42-.25c-.21.06-.28.19-.23.42S136.17,97.05,136.37,97ZM107,120.21c-.08-.17-.19-.29-.41-.24a.31.31,0,0,0-.26.34.3.3,0,0,0,.37.3A.35.35,0,0,0,107,120.21Zm24.66-22.76c-.24.11-.31.25-.24.46s.28.25.45.19a.3.3,0,0,0,.18-.4C131.93,97.52,131.79,97.39,131.61,97.45Zm-4.15,1.34c-.1-.17-.21-.32-.44-.25a.3.3,0,0,0-.22.42c.06.21.19.24.37.22S127.44,99,127.46,98.79Zm-20,20.23c-.09-.19-.24-.32-.43-.28a.34.34,0,0,0-.28.41.33.33,0,0,0,.42.25C107.31,119.35,107.49,119.26,107.43,119Zm15-19.42c-.13.1-.3.2-.22.43a.37.37,0,0,0,.46.22.31.31,0,0,0,.21-.39A.36.36,0,0,0,122.44,99.6Zm-6.26,1.85c-.1.07-.27.18-.17.39s.24.32.44.24a.34.34,0,0,0,.19-.46C116.58,101.46,116.45,101.35,116.18,101.45Zm2.16-.51c-.12-.14-.2-.35-.44-.24s-.3.17-.2.37.15.33.35.28A.41.41,0,0,0,118.34,100.94Zm-5.46,3.46c-.11-.15-.21-.32-.44-.24s-.3.22-.21.43.17.3.37.22S112.92,104.63,112.88,104.4Zm2.42,23a.24.24,0,0,0-.35-.16c-.14,0-.35.12-.27.33s.14.37.39.3S115.37,127.68,115.3,127.42ZM109.71,124c0-.16-.17-.29-.35-.24s-.37.12-.31.36.13.37.37.3A.35.35,0,0,0,109.71,124Zm-1.67-.66c-.17.07-.28.18-.22.37a.34.34,0,0,0,.4.22c.19,0,.23-.21.2-.39S108.22,123.3,108,123.33Zm16.48-24.28c-.07-.12-.15-.27-.32-.19s-.35.15-.26.39.17.31.35.24A.36.36,0,0,0,124.52,99.05Zm-16.08,13.41c-.1-.14-.2-.27-.4-.19a.29.29,0,0,0-.19.38.27.27,0,0,0,.38.18A.29.29,0,0,0,108.44,112.46Zm8.09,15.47c-.13-.07-.18-.32-.42-.22a.35.35,0,0,0-.25.43.28.28,0,0,0,.44.17C116.44,128.24,116.61,128.19,116.53,127.93Zm-3.89-1c.1-.07.26-.15.22-.35s-.14-.31-.34-.23-.33.13-.28.35A.29.29,0,0,0,112.64,127Zm27-31.5a.33.33,0,0,0,.18-.41c-.06-.17-.19-.19-.34-.13s-.27.19-.18.37A.29.29,0,0,0,139.68,95.46ZM114.1,127.08a.44.44,0,0,0-.43-.26c-.19,0-.21.24-.2.39s.18.25.36.22S114.13,127.3,114.1,127.08Zm.65-24.24a.38.38,0,0,0,.23-.44.26.26,0,0,0-.39-.16c-.14.07-.33.15-.22.36S114.51,102.92,114.75,102.84Zm14-5c-.14.11-.32.2-.21.43s.19.28.38.18a.34.34,0,0,0,.17-.46A.24.24,0,0,0,128.72,97.79Zm-8.78,2.36c0-.16-.12-.28-.3-.22s-.35.16-.26.4.13.27.31.24S120,100.34,119.94,100.15Zm13.45-2.79a.35.35,0,0,0,.25-.43.24.24,0,0,0-.32-.21c-.15.06-.31.15-.26.35S133.18,97.38,133.39,97.36Zm4.82-1.47c0-.15-.12-.28-.27-.25s-.36.12-.32.36.12.32.31.3S138.2,96.09,138.21,95.89Zm-30.58,17.55a.32.32,0,0,0-.24.37c0,.2.12.31.33.25s.3-.17.27-.35S107.82,113.45,107.63,113.44Zm-.29,8.2a.29.29,0,0,0-.23.37c0,.17.11.32.33.26a.33.33,0,0,0,.28-.41A.3.3,0,0,0,107.34,121.64Zm1.32-10c.14-.06.28-.14.24-.35s-.11-.32-.33-.27-.3.15-.26.35A.29.29,0,0,0,108.66,111.63Zm.66-1.61c-.07-.13-.16-.27-.32-.22a.32.32,0,0,0-.24.42c0,.17.2.2.35.17S109.33,110.19,109.32,110Zm12-10.26c.18-.07.28-.18.24-.38s-.1-.23-.24-.21-.31.14-.28.33S121.19,99.77,121.36,99.76ZM106.21,117.1a.31.31,0,0,0-.18.39c0,.15.14.26.31.21s.32-.13.24-.34S106.44,117.06,106.21,117.1Zm-.4,1.24a.3.3,0,0,0-.21.32.25.25,0,0,0,.29.25c.19,0,.24-.21.21-.39A.23.23,0,0,0,105.81,118.34Zm1.37-3.66c-.17.07-.31.16-.24.37s.15.29.35.23.3-.15.24-.36S107.38,114.64,107.18,114.68Zm2.59-5.87a.28.28,0,0,0-.34-.19.27.27,0,0,0-.19.38c.06.13.15.26.33.21S109.78,109,109.77,108.81Zm1.63,17.7a.43.43,0,0,0,.2-.39.22.22,0,0,0-.31-.2.32.32,0,0,0-.25.36A.35.35,0,0,0,111.4,126.51Zm-1.52-19.14a.38.38,0,0,0-.22.38.27.27,0,0,0,.33.21c.17,0,.31-.15.23-.35S110.1,107.33,109.88,107.37Zm14.74-9.7a.32.32,0,0,0-.21.38c0,.17.12.26.3.21s.24-.22.24-.38S124.8,97.66,124.62,97.67Zm-17.55,18.45a.29.29,0,0,0-.32-.23.29.29,0,0,0-.29.33c0,.18.16.22.31.21A.3.3,0,0,0,107.07,116.12ZM127.7,97.6c0-.13.14-.35-.17-.29s-.33.18-.27.39a.24.24,0,0,0,.37.17C127.78,97.8,128,97.76,127.7,97.6Zm-16.29,6.68c.16,0,.16-.18.12-.3s-.14-.26-.32-.18-.21.16-.14.3S111.23,104.35,111.41,104.28Zm1.86-1.07c-.06-.2-.19-.28-.34-.24a.27.27,0,0,0-.19.38c0,.15.13.26.31.19S113.31,103.36,113.27,103.21Zm-5.9,8a.29.29,0,0,0,.24-.36.24.24,0,0,0-.26-.21c-.19,0-.26.19-.27.35S107.22,111.18,107.37,111.18Zm8-10a.22.22,0,0,0-.32-.15c-.12.05-.3.09-.24.28a.3.3,0,0,0,.35.18C115.34,101.52,115.41,101.4,115.39,101.22Zm16.84-4.4c.14-.08.24-.17.15-.34s-.13-.22-.28-.16-.26.13-.19.32A.26.26,0,0,0,132.23,96.82ZM111,127.7a.28.28,0,0,0,.15-.32c0-.15-.15-.27-.31-.2s-.33.14-.21.35A.28.28,0,0,0,111,127.7Zm23.06-32.08c0-.09-.14-.16-.29-.13s-.31.16-.21.35,0,.34.26.21A.35.35,0,0,0,134.07,95.62Zm-22.95,9.49c-.08-.06-.16-.18-.3-.11s-.31.14-.2.36a.27.27,0,0,0,.3.16A.36.36,0,0,0,111.12,105.11Zm23.94-8.57c.17-.07.28-.16.22-.37s-.1-.22-.24-.2-.3.13-.26.33S134.88,96.56,135.06,96.54Zm-18,3.89c-.07-.07-.14-.2-.31-.16a.29.29,0,0,0-.26.3.24.24,0,0,0,.28.24C117,100.8,117.07,100.68,117.07,100.43Zm12.21-3.22a.35.35,0,0,0,.23-.38c0-.16-.2-.22-.33-.22s-.18.15-.13.31S129.06,97.22,129.28,97.21ZM107,123.44c.17,0,.19-.17.13-.33s-.11-.23-.26-.18a.27.27,0,0,0-.19.33C106.73,123.44,106.86,123.48,107,123.44ZM106.36,113c-.12.1-.25.22-.2.4a.22.22,0,0,0,.3.15c.2-.06.21-.24.19-.4S106.51,113,106.36,113Zm7.32-11c-.06-.07-.09-.26-.28-.2a.25.25,0,0,0-.2.32.27.27,0,0,0,.33.2C113.66,102.29,113.72,102.19,113.68,102Zm-7.24,19.49c0-.17-.17-.22-.3-.25s-.21.12-.23.24.12.26.25.29S106.36,121.62,106.44,121.5ZM137,95.43c-.08-.11-.14-.25-.33-.16s-.22.18-.13.33a.25.25,0,0,0,.35.13A.21.21,0,0,0,137,95.43Zm-26.25,11c-.07-.13-.14-.26-.32-.21s-.32.13-.25.33a.29.29,0,0,0,.35.18A.24.24,0,0,0,110.7,106.42Zm15.46-8.09c0-.2-.16-.27-.32-.2a.26.26,0,0,0-.19.33c0,.14.12.27.3.21S126.22,98.49,126.16,98.33Zm-11.34,30.46c0-.22-.2-.18-.33-.19s-.16.19-.17.3.14.23.29.19A.27.27,0,0,0,114.82,128.79Zm-6.47-20.15c.18,0,.22-.16.16-.32a.18.18,0,0,0-.28-.11c-.12.06-.29.13-.23.3S108.2,108.67,108.35,108.64Zm-.3.89c0-.12-.14-.21-.27-.17s-.21.22-.16.39a.19.19,0,0,0,.28.14A.29.29,0,0,0,108.05,109.53Zm-2.58,10.39c.12,0,.27.1.21-.13s-.13-.33-.33-.27-.31.12-.23.35S105.34,120,105.47,119.92ZM110.2,126c.13-.08.25-.18.17-.34a.27.27,0,0,0-.34-.16.22.22,0,0,0-.15.33C109.94,126,110,126.07,110.2,126Zm8.51-26.25c0-.15-.11-.28-.29-.23s-.23.09-.22.25a.27.27,0,0,0,.28.26A.22.22,0,0,0,118.71,99.76Zm19.63-5.24c-.18,0-.26.11-.22.28s.14.28.29.2a.41.41,0,0,0,.23-.4C138.61,94.45,138.47,94.46,138.34,94.52Zm-32.42,19.77a.29.29,0,0,0-.12.37c0,.13.13.21.27.15s.23-.19.13-.34S106.07,114.25,105.92,114.29Zm-.9,7a.29.29,0,0,0,.19-.33c0-.14-.11-.24-.25-.22s-.17.2-.24.31C104.83,121.15,104.83,121.35,105,121.33Zm25.69-24.11c0-.16-.13-.2-.27-.16a.26.26,0,0,0-.21.37.22.22,0,0,0,.28.16A.27.27,0,0,0,130.71,97.22ZM106,122.73c-.18-.18-.29-.28-.44-.21a.25.25,0,0,0-.13.3c0,.15.15.27.31.18A1.1,1.1,0,0,0,106,122.73Zm2.42-15.39c.06.1.12.22.22.1s.39.06.33-.25c0-.13-.11-.24-.23-.23S108.52,107.2,108.44,107.34ZM123.08,99c.13,0,.23-.12.19-.26s-.11-.28-.29-.23-.23.11-.2.26A.25.25,0,0,0,123.08,99Zm-2.74-.09a.23.23,0,0,0-.32-.16.28.28,0,0,0-.19.34c0,.24.22.06.34.08C120.46,99.2,120.26,99,120.34,98.87Zm-8,29c0-.13-.08-.25-.23-.22s-.27.15-.2.31.16.22.25.22S112.31,128,112.3,127.83Zm-4.7-3.3a1.76,1.76,0,0,0-.17.39c0,.11.1.19.19.17s.22-.22.26-.37S107.8,124.56,107.6,124.53Zm-1.13.12a.27.27,0,0,0,.21-.32.17.17,0,0,0-.22-.15c-.14,0-.24.09-.22.24S106.31,124.66,106.47,124.65Zm6.94,3.95a.34.34,0,0,0,.11-.34c-.07-.18-.25-.09-.38-.1a.14.14,0,0,0-.13.21A.55.55,0,0,0,113.41,128.6Zm-8.54-10.52c0-.13-.11-.23-.26-.16s-.1.2-.07.31,0,.22.18.19S104.89,118.23,104.87,118.08ZM127,95.9a.28.28,0,0,0-.33-.14.15.15,0,0,0-.11.23.27.27,0,0,0,.33.18C127,96.14,127.07,96.05,127,95.9Zm-5.32,2.59a.57.57,0,0,0,.22-.38c0-.1-.11-.11-.18-.09s-.31.11-.28.31S121.57,98.49,121.7,98.49Zm-12.45,26.88c0-.25-.13-.38-.29-.38s-.13.13-.11.24.06.3.25.27A.17.17,0,0,0,109.25,125.37ZM105,116.66a.26.26,0,0,0-.15.35c0,.1.12.21.21.18s.15-.25.17-.38S105.15,116.67,105,116.66Zm35.25-22.75c0-.1-.09-.18-.21-.11s-.31,0-.24.26.1.23.25.18A.28.28,0,0,0,140.28,93.91Zm-33.35,18.47c0-.16.3-.13.24-.34s-.07-.22-.2-.14-.37,0-.32.27C106.67,112.25,106.82,112.31,106.93,112.38Zm10.21-13.32c-.12.07-.21.18-.12.34s.13.25.27.17.07-.26.08-.39S117.28,99,117.14,99.06Zm15.14-3.66c.07.24.23,0,.34.07s.14-.11.12-.19-.07-.26-.23-.2A.31.31,0,0,0,132.28,95.4Zm-16.43,33.7c-.09.11-.3.15-.24.36s.16.11.26.08a.29.29,0,0,0,.21-.33C116.06,129.1,116,129,115.85,129.1ZM131.14,96c0-.12-.11-.19-.23-.16s-.18.2-.18.33.1.15.2.1S131.23,96.2,131.14,96Zm-13.25,2.07c0-.11-.09-.18-.2-.16a.23.23,0,0,0-.22.24.19.19,0,0,0,.24.19C117.85,98.32,117.89,98.2,117.89,98.07Zm-13.8,21.13a.29.29,0,0,0-.12.27.16.16,0,0,0,.21.15c.15,0,.25-.15.19-.31S104.25,119.16,104.09,119.2Zm19.6-21.79a.2.2,0,0,0-.22-.17c-.2,0-.11.22-.12.34a.15.15,0,0,0,.18.18C123.7,97.71,123.67,97.54,123.69,97.41Zm10.61-2.6c.16,0,.19-.13.16-.27s-.08-.16-.21-.13-.25.06-.23.22S134.16,94.81,134.3,94.81Zm-29.8,20.36a.16.16,0,0,0-.23-.11.22.22,0,0,0-.17.27.19.19,0,0,0,.27.14A.23.23,0,0,0,104.5,115.17ZM114,129.83c-.08.07-.23.12-.18.26s.16.17.29.14.15-.16.11-.29S114.14,129.77,114,129.83Zm-2-27a.29.29,0,0,0-.45-.14c-.07,0-.12.15-.06.21S111.88,102.93,112.05,102.81Zm25.2-8.66A.15.15,0,0,0,137,94a.24.24,0,0,0-.15.29.17.17,0,0,0,.23.13C137.25,94.4,137.23,94.25,137.25,94.15Zm-9.17,2.49a.23.23,0,0,0,.18-.22c0-.18-.16-.13-.27-.14s-.19,0-.17.17S127.92,96.68,128.08,96.64Zm-17.29,5.66a1,1,0,0,0-.37-.09c-.12,0-.09.15-.06.25a.18.18,0,0,0,.29.1A.25.25,0,0,0,110.79,102.3Zm1.46-.55c.14,0,.18-.09.16-.2s-.06-.25-.23-.18-.19.13-.19.21S112.14,101.72,112.25,101.75Zm1.7-1.09a.35.35,0,0,0-.2.28c0,.13.11.16.21.15a.19.19,0,0,0,.18-.25C114.12,100.74,114.08,100.65,114,100.66Zm-1,29.09a.2.2,0,1,0-.08-.4.18.18,0,0,0-.16.21C112.67,129.7,112.77,129.76,112.91,129.75ZM105.32,116c.27-.08.48,0,.56-.28a.13.13,0,0,0-.11-.18C105.52,115.52,105.48,115.74,105.32,116Zm9.24-16.41a.21.21,0,0,0-.21-.17.21.21,0,0,0-.2.24.18.18,0,0,0,.2.17C114.49,99.82,114.56,99.72,114.56,99.58Zm4.39-.77q.27-.14.18-.36c0-.07-.14-.16-.16-.15a.43.43,0,0,0-.19.4S118.9,98.78,119,98.81Zm.54-1.5c0-.08,0-.19-.19-.16a.23.23,0,0,0-.14.24c0,.12.08.19.2.17S119.51,97.45,119.49,97.31Zm10.35-1.71c-.07,0-.11-.21-.27-.11s-.16.14-.1.24a.26.26,0,0,0,.27.11C129.85,95.81,129.91,95.74,129.84,95.6Zm-14,4.39c0-.11-.1-.18-.14-.08s-.39-.11-.39.19c0,.11.09.14.17.12S115.79,100.2,115.82,100Zm-10,11.49a.16.16,0,0,0-.24-.07c-.09,0-.17.13-.13.24s.15.1.25.07A.17.17,0,0,0,105.85,111.48Zm2.6,15.23c.11,0,.2-.08.18-.21a.12.12,0,0,0-.16-.12c-.11,0-.24.11-.22.26S108.37,126.72,108.45,126.71Zm17.64-29.63c.1.21.16.37.36.32a.22.22,0,0,0,.11-.18C126.49,97,126.3,97.12,126.09,97.08ZM107,107.89c-.08.07-.16.14-.1.25s.17.07.26,0,.14-.1.1-.18A.21.21,0,0,0,107,107.89Zm24.13-13.08c.07.26.16.38.36.3s.12-.16.1-.19C131.45,94.7,131.28,95,131.11,94.81ZM111.55,129.2a.14.14,0,0,0,.19.1c.11,0,.13-.14.1-.25s0-.18-.15-.15S111.57,129.09,111.55,129.2Zm10.86-32.26a.21.21,0,0,0-.23-.15A.19.19,0,0,0,122,97a.13.13,0,0,0,.18.1C122.3,97.09,122.4,97.08,122.41,96.94Zm10.78-2.88c0-.08-.09-.17-.17-.12a.28.28,0,0,0-.09.33s.1.08.14.08S133.22,94.18,133.19,94.06Zm-12.55,4a.24.24,0,0,0,.2-.26c0-.09-.08-.19-.15-.14a.51.51,0,0,0-.2.28C120.46,98,120.55,98,120.64,98Zm-16.88,18.61c0,.09.1.15.18.1a.22.22,0,0,0,.12-.26c0-.08,0-.16-.15-.13S103.75,116.49,103.76,116.62Zm24.86-21.41c0-.09-.06-.15-.16-.15a.16.16,0,0,0-.16.15.16.16,0,0,0,.2.17A.14.14,0,0,0,128.62,95.21Zm-23.46,17.57c-.1,0-.19.1-.11.21a.23.23,0,0,0,.2.08c.12,0,.14-.14.11-.24S105.24,112.76,105.16,112.78Zm5.22,15.77a.15.15,0,0,0-.11.18c0,.08.07.15.17.13a.16.16,0,0,0,.14-.22C110.55,128.55,110.47,128.54,110.38,128.55Zm5.54-29.61c0,.1.09.13.16.09s.12-.15.08-.26,0-.17-.14-.14S116,98.83,115.92,98.94ZM106.8,109.2c0-.09-.1-.19-.16-.15a.81.81,0,0,0-.19.29s.09.09.14.09S106.79,109.33,106.8,109.2Zm2.16-6.11c0-.08-.07-.14-.17-.13s-.15.07-.15.16a.16.16,0,0,0,.21.16A.16.16,0,0,0,109,103.09Zm-5.3,14.67c-.19-.12-.32-.2-.43,0s0,.14,0,.15S103.47,117.82,103.66,117.76ZM124,96.25c0-.12-.06-.18-.16-.16s-.15.08-.13.17,0,.17.15.13S124,96.29,124,96.25Zm-7.59,1.24a.54.54,0,0,0-.09.17c0,.09.06.15.16.12a.15.15,0,0,0,.13-.17C116.6,97.53,116.57,97.46,116.42,97.49ZM105,125.11s-.12-.09-.19-.08a.12.12,0,0,0-.1.17.14.14,0,0,0,.18.11C104.93,125.3,105,125.23,105,125.11Zm35.61-32.52c-.1.12-.26.19-.17.37s.13,0,.16,0S140.65,92.73,140.56,92.59ZM125.18,97a1.11,1.11,0,0,0,.09-.25c0-.1,0-.2-.14-.18s-.17,0-.14.14A1.39,1.39,0,0,0,125.18,97Zm14.08-4.87c-.14,0-.14.12-.11.2a.13.13,0,0,0,.19.08c.1,0,.13-.1.08-.17A.38.38,0,0,0,139.26,92.1Zm-34.63,30.26c0-.1-.07-.14-.15-.17s-.15,0-.16.11,0,.15.13.17A.15.15,0,0,0,104.63,122.36Zm4.6,6a.53.53,0,0,0,.06-.19c0-.11-.11-.1-.19-.07a.14.14,0,0,0-.09.19C109,128.4,109.11,128.42,109.23,128.37Zm-3.29-17.83c.07.1.15,0,.24,0s.2,0,.13-.13-.18-.08-.27-.08S105.93,110.43,105.94,110.54Zm24.2-16.27c-.12,0-.16.11-.13.19a.15.15,0,0,0,.19.11c.08,0,.14-.09.1-.17A.4.4,0,0,0,130.14,94.27ZM113.1,99c-.14.05-.14.13-.11.21s.11.1.19.08a.11.11,0,0,0,.08-.18A.76.76,0,0,0,113.1,99Zm-4.95,6.58c0-.1-.07-.14-.15-.17a.11.11,0,0,0-.16.11.15.15,0,0,0,.13.18A.16.16,0,0,0,108.15,105.54Zm-5,9.44a.14.14,0,0,0,.08-.19.2.2,0,0,0-.15-.07c-.08,0-.15.07-.12.16A.15.15,0,0,0,103.15,115Zm5,12.76c-.07-.14-.15-.07-.22-.06s-.14.07-.09.16.11.12.19.07A1,1,0,0,0,108.18,127.74Zm-4-4.34c-.07-.05-.13-.11-.14-.1a.38.38,0,0,0-.15.16c0,.08,0,.17.13.12S104.11,123.47,104.17,123.4Zm5.48,3.32a1.1,1.1,0,0,0,0,.24c0,.08,0,.33.19.15S109.83,126.86,109.65,126.72Zm-6.13-13.26c-.09,0-.14.09-.1.17a.21.21,0,0,0,.13.1.14.14,0,0,0,.14-.16A.12.12,0,0,0,103.52,113.46Zm6.38-8.77c-.09-.06-.14-.12-.21-.13s-.17,0-.12.13a.47.47,0,0,0,.18.12S109.83,104.75,109.9,104.69Zm-4.85,5.18a.12.12,0,0,0-.2-.05.17.17,0,0,0-.07.14.14.14,0,0,0,.19.1A.15.15,0,0,0,105.05,109.87Zm-.87,2.54c-.06,0-.11-.09-.15-.08a.19.19,0,0,0-.13.07c0,.1,0,.14.13.12S104.11,112.46,104.18,112.41Zm2.73,14.81a.54.54,0,0,0-.18,0c-.08,0-.14.08-.08.16a.16.16,0,0,0,.15,0S106.86,127.28,106.91,127.22ZM109,105.9c-.1.07-.12.15-.08.23a.17.17,0,0,0,.14.08c.1,0,.06-.13,0-.2S109,105.94,109,105.9Zm18.4-11.19c-.06,0-.11-.08-.14-.07s-.08.09-.08.13.06.15.16.1S127.36,94.78,127.38,94.71ZM107.18,126a1.47,1.47,0,0,0,0,.21s0,.14.11.07a.41.41,0,0,0,0-.23C107.34,125.94,107.29,125.92,107.18,126Zm30.41-33.14-.14.17s.08.09.12.09.16,0,.12-.13S137.63,92.86,137.59,92.82Zm-24,38.58c.06-.05.13-.09.13-.12s-.07-.13-.15-.11a.18.18,0,0,0-.09.12S113.58,131.36,113.62,131.4Zm-1.21-30.95a1.31,1.31,0,0,0,.39,0s0-.11,0-.13S112.58,100.3,112.41,100.45Zm-9,21.45c-.07,0-.11-.08-.15-.08s-.13.05-.13.08,0,.14.13.12S103.33,122,103.4,121.9Zm8.2-22-.1-.11s-.1.07-.1.1a.23.23,0,0,0,.1.12C111.57,100,111.6,100,111.6,99.87Zm9.91-4.37.07-.17s-.1,0-.13,0-.06.08-.08.13Zm-18.77,20.58s0-.11-.06-.1a.26.26,0,0,0-.15.07.08.08,0,0,0,.07.12A.42.42,0,0,0,102.74,116.08Zm23-20.62c-.07,0-.13-.06-.16,0a.48.48,0,0,0-.09.14s.09.06.12,0S125.72,95.53,125.77,95.46Zm-15.5,8.09s-.07-.06-.09-.06-.15.07-.14.17,0,.14.09.09A1,1,0,0,0,110.27,103.55Zm3.22-5.7,0,.11a.22.22,0,0,0,.11,0s0-.07,0-.11Zm-7.63,27.79s0,.08,0,.1.06,0,.1,0,0-.09,0-.11S105.9,125.64,105.86,125.64Zm31.06-34.31-.11,0s0,.09,0,.11.07,0,.11,0Zm-20,5s0,.09,0,.11.07,0,.11,0,0-.09,0-.11S117,96.35,116.92,96.34Zm15.3-4s0,.08,0,.11.07,0,.11,0,0-.09,0-.11S132.26,92.35,132.22,92.35Zm-4.43,1.16s-.09,0-.11,0,0,.07,0,.1.09,0,.11,0S127.78,93.55,127.79,93.51Zm-9.16,2.06s-.09,0-.11,0,0,.08,0,.1.09,0,.11,0S118.62,95.61,118.63,95.57ZM105.17,128l-.11,0s0,.09,0,.11.06,0,.1,0ZM114,96.71s0,.08,0,.11a.09.09,0,0,0,.1,0s0-.08,0-.1S114,96.71,114,96.71Zm15.54-4s-.09,0-.11,0,0,.07,0,.1.08,0,.11,0S129.49,92.74,129.5,92.7Zm-4.72,1.13s.09,0,.11,0,0-.07,0-.11-.08,0-.11,0S124.79,93.79,124.78,93.83Zm-4.53,1s0,.09,0,.11.07,0,.11,0,0-.08,0-.1S120.28,94.87,120.25,94.86Zm-14.42,12.68s.08,0,.1,0,0-.07,0-.11-.09,0-.11,0S105.83,107.5,105.83,107.54Zm-2.52,3.23s0-.08,0-.11-.07,0-.11,0,0,.09,0,.11S103.28,110.77,103.31,110.77ZM102.9,112s0-.09-.06-.09-.06,0-.1.06,0,.08.07.08S102.87,112,102.9,112Zm4.67,17h-.11s0,.08,0,.1.07,0,.11,0Zm-5.72-14.64,0,.11s.08,0,.11,0,0-.07,0-.1Zm-.33,1.27s-.09,0-.11,0a.15.15,0,0,0,0,.11.09.09,0,0,0,.1,0S101.51,115.61,101.52,115.57Zm21.69-21s-.08,0-.11,0,0,.07,0,.11.09,0,.11,0S123.21,94.58,123.21,94.54Zm-13.38,6.06-.11,0s0,.09,0,.11.07,0,.1,0Zm-8.09,17.8,0,.11a.22.22,0,0,0,.11,0s0-.07,0-.11Zm6.39-17s-.08,0-.11,0,0,.07,0,.11.09,0,.11,0S108.13,101.45,108.13,101.41Zm-6.49,21.2s0-.08-.06-.08-.06,0-.09.06,0,.08.06.08S101.61,122.64,101.64,122.61Zm8.55-23.16v.11s.08,0,.1,0,0-.07,0-.1Zm10.94-2.89a.58.58,0,0,0-.16,0s-.08,0-.08,0,.09.1.17.08S121.1,96.59,121.13,96.56Zm-10.34,35s-.09,0-.11,0,0,.07,0,.1.08,0,.11,0S110.78,131.61,110.79,131.57Zm-8.37-7.2s0-.08,0-.1-.07,0-.1,0,0,.09,0,.11S102.38,124.37,102.42,124.37Zm3.89-18-.11,0s0,.09,0,.11.07,0,.1,0Zm5.59-7.69,0,.11s.09,0,.11,0,0-.07,0-.11Zm30.73-7.74s0-.09,0-.11a.12.12,0,0,0-.1,0,.08.08,0,0,0,0,.1S142.59,90.89,142.63,90.9Zm-34.25,13.47,0,.11s.09,0,.11,0,0-.07,0-.11Zm25.2-11.44s0-.09,0-.11-.07,0-.11,0,0,.08,0,.11S133.55,92.92,133.58,92.93Zm-24.73,36.52s0-.08-.07-.08-.06,0-.09.06,0,.08.07.08S108.82,129.48,108.85,129.45ZM141,91.7s.07,0,.08-.07,0,0-.05-.08a.16.16,0,0,0-.07.07S141,91.68,141,91.7Zm-33.39,15a.29.29,0,0,0,0,.09s0,0,0,0,0,0,.06-.07Zm1.78-.86-.09,0s0,0,0,0l.07.06A.41.41,0,0,1,109.39,105.85ZM126,94.35s.07,0,.07-.07,0-.06,0-.08a.16.16,0,0,0-.07.07S126,94.32,126,94.35Zm-21,19.76-.07-.09a.46.46,0,0,1-.07.07l0,0Zm34-20.74v0h0s0,0,0-.06ZM105.48,108.7v.06h0v-.05ZM135.83,94h0a.07.07,0,0,0,0,0s0,0-.06,0Zm-5.2-.73h-.09s0,0,.05,0ZM110,129.91l0,0,0,0,0,.05Zm1.15.53h.06v0h-.06Zm-6.57-16.34a.13.13,0,0,0,0-.06h0s0,0,0,0Z"/><path class="cls-6" d="M113.8,59.58a4.53,4.53,0,0,1-.72,1.81c-1.19,2.47-2.45,4.91-3.66,7.38-1.47,3-2.91,6-4.38,9-1,2.06-2,4.11-3.05,6.17-.58,1.17-1.15,2.36-1.73,3.53-.07.14-.1.32-.33.39-.5-1.44-1-2.89-1.49-4.33q-.91-2.61-1.81-5.21c-.17-.47-.31-.94-.47-1.4a20.27,20.27,0,0,0-2.25-3.57c-.22-.35-.41-.11-.59,0a38.24,38.24,0,0,0-3.74,3.9c-1.78,2.1-3.59,4.17-5.35,6.28a25.14,25.14,0,0,0-3,3.8,32.51,32.51,0,0,1-1.7,3c0-1.1.06-2.21.1-3.32.17-4.36.33-8.72.52-13.09a.65.65,0,0,0-.52-.76,14.83,14.83,0,0,1-1.46-.51.46.46,0,0,0-.7.23c-.44.76-.94,1.49-1.41,2.24-1.18,1.83-2.27,3.72-3.45,5.55-1.36,2.13-2.68,4.29-4,6.42a65.43,65.43,0,0,1-4.32,5.51c-2.94,3.69-5.91,7.34-8.87,11-.13.16-.28.3-.42.45a3.88,3.88,0,0,1,.26-2.7q4.45-10.91,8.88-21.83c.83-2,1.67-4.07,2.49-6.11a4.35,4.35,0,0,1,3.17-2.75l43.33-11C113.31,59.66,113.56,59.63,113.8,59.58Z"/><path class="cls-6" d="M148.89,80.43,121,87.5l-8.26,2.09c-.17,0-.38.19-.52,0s.07-.33.14-.49c1-2.06,2-4.13,3-6.19.84-1.73,1.71-3.45,2.56-5.18,1.2-2.44,2.38-4.89,3.58-7.34.85-1.73,1.72-3.45,2.57-5.18.57-1.17,1.13-2.36,1.72-3.53.16-.33.39-.63.58-.94L132.71,66l14.64,12.07A3.75,3.75,0,0,1,148.89,80.43Z"/><path class="cls-6" d="M84.06,120.39c1.1-2.22,2.22-4.43,3.31-6.66,1-2,2-4.09,3-6.13s2.1-4.22,3.14-6.33q1.76-3.58,3.49-7.19a1.24,1.24,0,0,1,.89-.75c4.47-1.11,8.93-2.25,13.4-3.38.19,0,.42-.23.57,0s-.11.33-.18.49c-.85,1.76-1.69,3.51-2.55,5.25s-1.77,3.56-2.65,5.35c-1,2-2,4-3,6-.74,1.53-1.5,3-2.25,4.57-1,2-2,4-3,6l-2.25,4.57c-.48,1-1,2-1.46,3a.62.62,0,0,0,0,.48L89.2,123C87.48,122.14,85.77,121.26,84.06,120.39Z"/><path class="cls-6" d="M115.93,118.71a2,2,0,0,1,.08-1.5c.95-2.34,1.9-4.69,2.86-7a3.07,3.07,0,0,1,2.06-1.8c.72-.22,1.55-.15,2.15-.74,1.37.13,2.58-.49,3.86-.78,2.58-.6,5.15-1.27,7.72-1.94a3.12,3.12,0,0,1,3,.68l5.62,4.63a2,2,0,0,1,.86,1.36,14.61,14.61,0,0,0-5,1.88,15.37,15.37,0,0,1-2,1.07c-1,.44-1.45,1.4-2,2.27a.33.33,0,0,0,0,.39c.41.8.82,1.57,1.84,1.72a4.37,4.37,0,0,1,.68.27c.39.1.38.28.18.57-.35.5-.68,1-1,1.53-.77,1.14-1.56,2.27-2.32,3.41-.26.38-.35.27-.5-.08q-1.17-2.73-2.38-5.45a2.07,2.07,0,0,1-.11-1.69c.31-.78.46-1.62.7-2.43.11-.36,0-.46-.34-.37l-.42.1Z"/><path class="cls-5" d="M115.93,118.71l15.56-3.93.42-.1c.35-.09.45,0,.34.37-.24.81-.39,1.65-.7,2.43a2.07,2.07,0,0,0,.11,1.69q1.22,2.72,2.38,5.45c.15.35.24.46.5.08.76-1.14,1.55-2.27,2.32-3.41.34-.5.67-1,1-1.53.2-.29.21-.47-.18-.57a4.37,4.37,0,0,0-.68-.27c-1-.15-1.43-.92-1.84-1.72a.33.33,0,0,1,0-.39c.52-.87.93-1.83,2-2.27a15.37,15.37,0,0,0,2-1.07,14.61,14.61,0,0,1,5-1.88,1.84,1.84,0,0,1-.33,1.69q-4.65,6.69-9.32,13.37a2.18,2.18,0,0,1-3,.68l-10.15-5.11-4.22-2.13A2,2,0,0,1,115.93,118.71Z"/><path class="cls-5" d="M128.42,100.78l.08,0a1.36,1.36,0,0,1,.11.28c.06.27.19.58-.17.73s-.48,0-.63-.3c-.22-.45.19-.44.39-.58A1.12,1.12,0,0,1,128.42,100.78Z"/><path class="cls-5" d="M110.47,114.35c-.18-.39.15-.46.38-.55s.4,0,.45.28,0,.55-.31.63A.37.37,0,0,1,110.47,114.35Z"/><path class="cls-5" d="M118.46,103.3l0-.16c.3.08.54-.13.81-.18l.15,0c0,.12.06.24.1.36s.14.47-.19.6a.45.45,0,0,1-.61-.23Z"/><path class="cls-5" d="M110.7,112.89l0-.15a.78.78,0,0,0,.54-.07c.3-.15.45,0,.57.25a.34.34,0,0,1-.16.51.45.45,0,0,1-.64-.15Z"/><path class="cls-5" d="M109.33,116.54l0-.15a.81.81,0,0,0,.53-.07c.23-.09.45-.12.54.17s.13.51-.17.63a.47.47,0,0,1-.63-.19C109.5,116.8,109.53,116.59,109.33,116.54Z"/><path class="cls-5" d="M111.3,111.71l0-.07a2.21,2.21,0,0,1,.27-.12c.25-.1.54-.29.69.14a.41.41,0,0,1-.27.58c-.37.13-.58,0-.63-.41Z"/><path class="cls-5" d="M110.82,121.92c.17-.18,0-.29-.1-.4s-.19-.46.09-.62a.42.42,0,0,1,.63.19.47.47,0,0,1-.21.67c-.14.09-.33,0-.42.16Z"/><path class="cls-5" d="M109.75,115.22v0c.22.14.36-.09.55-.12s.52,0,.58.3a.38.38,0,0,1-.29.51c-.27.07-.45.07-.57-.24C110,115.49,110,115.26,109.75,115.22Z"/><path class="cls-5" d="M131.53,100.92c.08.22.06.47-.22.51s-.53.06-.6-.34.15-.46.4-.55S131.46,100.69,131.53,100.92Z"/><path class="cls-5" d="M116.74,103.89c.39.19.68-.25,1.06-.17a1.57,1.57,0,0,1,0,.3c0,.24.1.52-.21.64a.53.53,0,0,1-.67-.3c0-.11-.08-.24-.22-.28Z"/><path class="cls-5" d="M122.4,103c.08.24.08.51-.23.55s-.49.05-.58-.3.08-.48.36-.58S122.33,102.77,122.4,103Z"/><path class="cls-5" d="M136.08,99.83c.09.22.08.48-.19.52s-.54.09-.62-.3.09-.48.38-.57S136,99.58,136.08,99.83Z"/><path class="cls-5" d="M109,117.91v-.29l.36-.07c.27-.07.54-.17.65.21s-.07.48-.33.63-.42-.08-.54-.27Z"/><path class="cls-5" d="M127,102c.08.24.1.49-.2.54s-.51.07-.59-.28,0-.49.35-.59S126.9,101.71,127,102Z"/><path class="cls-5" d="M123.87,101.81l0,0a2.74,2.74,0,0,1,.15.4c0,.25.14.53-.22.65s-.48-.07-.61-.33c-.19-.42.17-.41.38-.53Z"/><path class="cls-5" d="M110.4,120c-.32.11-.46,0-.54-.31s.1-.44.35-.51.46.12.52.38S110.68,120,110.4,120Z"/><path class="cls-5" d="M114.17,124.51l-.17,0c0-.18-.1-.35-.14-.53s-.08-.47.22-.54.47-.07.6.18a.41.41,0,0,1-.18.61A2.6,2.6,0,0,0,114.17,124.51Z"/><path class="cls-5" d="M111.72,110.58v-.27a2.25,2.25,0,0,0,.36-.06c.24-.08.49-.16.59.18s.11.48-.15.6a.46.46,0,0,1-.64-.19Z"/><path class="cls-5" d="M117.12,124.7c0,.24,0,.49-.35.54a.44.44,0,0,1-.17-.86A.39.39,0,0,1,117.12,124.7Z"/><path class="cls-5" d="M115.9,124.22c0,.28,0,.51-.32.58a.42.42,0,0,1-.52-.31.43.43,0,0,1,.32-.57C115.64,123.84,115.79,124,115.9,124.22Z"/><path class="cls-5" d="M133,99.62l.09,0a5.88,5.88,0,0,1,.14.73c0,.24-.14.34-.38.38s-.38-.17-.48-.37,0-.33.17-.43S132.91,99.81,133,99.62Z"/><path class="cls-5" d="M115.3,107.35c0,.22,0,.42-.32.46s-.44,0-.5-.29,0-.43.29-.5S115.15,107.2,115.3,107.35Z"/><path class="cls-5" d="M115.27,105.74c.31-.06.41.12.48.35s-.06.47-.33.54-.5-.12-.56-.4S115.1,105.87,115.27,105.74Z"/><path class="cls-5" d="M129.9,101.64c0,.26-.08.5-.3.56a.45.45,0,0,1-.56-.36c-.07-.29.16-.39.38-.47S129.78,101.48,129.9,101.64Z"/><path class="cls-5" d="M120.77,103.76c0,.28-.07.5-.31.57a.44.44,0,0,1-.53-.3c-.1-.31.12-.45.37-.53S120.65,103.64,120.77,103.76Z"/><path class="cls-5" d="M114.44,109c-.18,0-.4,0-.42-.27s0-.48.29-.53.43,0,.47.27A.41.41,0,0,1,114.44,109Z"/><path class="cls-5" d="M110.91,118.82c-.26,0-.49-.08-.54-.34a.38.38,0,0,1,.25-.49c.29-.09.44.1.51.31A.5.5,0,0,1,110.91,118.82Z"/><path class="cls-5" d="M112.69,121.74c0,.15,0,.34-.3.42s-.44,0-.49-.22-.07-.52.25-.61S112.59,121.37,112.69,121.74Z"/><path class="cls-5" d="M134.46,100.56a.51.51,0,0,1-.3.56.42.42,0,0,1-.53-.29c-.11-.26.06-.41.28-.52S134.32,100.38,134.46,100.56Z"/><path class="cls-5" d="M119.08,104.55c0,.27,0,.44-.29.49s-.46,0-.54-.25.08-.43.32-.51S118.94,104.44,119.08,104.55Z"/><path class="cls-5" d="M118,125.68c-.24,0-.42,0-.47-.29s0-.47.26-.53a.45.45,0,0,1,.56.33C118.4,125.43,118.21,125.6,118,125.68Z"/><path class="cls-5" d="M124.9,102.42a.34.34,0,0,1,.41.3.43.43,0,0,1-.33.56.44.44,0,0,1-.5-.37C124.43,102.64,124.62,102.51,124.9,102.42Z"/><path class="cls-5" d="M116.88,105c.3-.09.44.13.52.32a.32.32,0,0,1-.25.46c-.23.06-.49,0-.54-.24S116.6,105.1,116.88,105Z"/><path class="cls-5" d="M111.51,119.69c.25,0,.34.18.39.4a.31.31,0,0,1-.27.4.37.37,0,0,1-.47-.35C111.12,119.91,111.23,119.75,111.51,119.69Z"/><path class="cls-5" d="M128.18,102.45c0,.24-.06.46-.31.48a.41.41,0,0,1-.46-.38.32.32,0,0,1,.27-.41C128,102.07,128.06,102.29,128.18,102.45Z"/><path class="cls-5" d="M113.91,122.15a.43.43,0,0,1-.31.46c-.24.08-.37-.08-.44-.3a.35.35,0,0,1,.3-.49C113.7,121.76,113.8,122,113.91,122.15Z"/><path class="cls-5" d="M114.35,109.79c0,.2-.08.41-.31.44s-.45,0-.48-.27,0-.48.32-.51A.42.42,0,0,1,114.35,109.79Z"/><path class="cls-5" d="M112.73,113.89c-.19,0-.43,0-.49-.26s0-.42.24-.49a.38.38,0,0,1,.47.29A.37.37,0,0,1,112.73,113.89Z"/><path class="cls-5" d="M123.38,104a.42.42,0,0,1-.53-.31.34.34,0,0,1,.27-.46.39.39,0,0,1,.47.29A.37.37,0,0,1,123.38,104Z"/><path class="cls-5" d="M132.3,101.06a.41.41,0,0,1,.43.36.35.35,0,0,1-.25.43.4.4,0,0,1-.5-.32C131.92,101.31,132,101.13,132.3,101.06Z"/><path class="cls-5" d="M115.08,122.61c0,.17,0,.4-.26.44a.36.36,0,0,1-.46-.3.38.38,0,0,1,.3-.46C114.85,122.25,115,122.33,115.08,122.61Z"/><path class="cls-5" d="M116.61,107.05c-.19,0-.4,0-.43-.25s0-.49.26-.53a.43.43,0,0,1,.46.32C117,106.82,116.78,107,116.61,107.05Z"/><path class="cls-5" d="M113.86,111c0,.21,0,.42-.25.5a.39.39,0,0,1-.5-.25.41.41,0,0,1,.26-.49C113.59,110.62,113.73,110.81,113.86,111Z"/><path class="cls-5" d="M121.93,104.29a.37.37,0,0,1-.25.44.36.36,0,0,1-.47-.27.38.38,0,0,1,.24-.49C121.68,103.9,121.83,104,121.93,104.29Z"/><path class="cls-5" d="M137.57,98.6l.07,0c.22.44-.17.66-.35,1s-.22,0-.27-.07-.3-.39,0-.57Z"/><path class="cls-5" d="M111.6,117.07c-.08.17,0,.46-.29.47s-.45,0-.46-.27,0-.42.28-.47A.39.39,0,0,1,111.6,117.07Z"/><path class="cls-5" d="M135.62,101.08a.39.39,0,0,1-.28.45.35.35,0,0,1-.44-.3.36.36,0,0,1,.26-.47C135.39,100.7,135.54,100.84,135.62,101.08Z"/><path class="cls-5" d="M131.06,102.17a.39.39,0,0,1-.3.43.36.36,0,0,1-.43-.33.35.35,0,0,1,.26-.43C130.83,101.78,131,101.9,131.06,102.17Z"/><path class="cls-5" d="M117.08,123.24a.31.31,0,0,1,.41.25c0,.2,0,.39-.21.43s-.42,0-.46-.27S116.85,123.28,117.08,123.24Z"/><path class="cls-5" d="M111.85,116.32c-.23,0-.41,0-.47-.21s-.13-.41.15-.51a.37.37,0,0,1,.5.23A.4.4,0,0,1,111.85,116.32Z"/><path class="cls-5" d="M112.9,111.94a.38.38,0,0,1,.5.26.35.35,0,0,1-.27.47.39.39,0,0,1-.48-.28A.31.31,0,0,1,112.9,111.94Z"/><path class="cls-5" d="M120.25,105c0,.16,0,.35-.19.39s-.44.1-.53-.16a.38.38,0,0,1,.27-.49C120,104.71,120.13,104.88,120.25,105Z"/><path class="cls-5" d="M126.49,103.23a.38.38,0,0,1-.3.44.35.35,0,0,1-.42-.28.38.38,0,0,1,.26-.49C126.28,102.84,126.42,103,126.49,103.23Z"/><path class="cls-5" d="M124.59,104.39c-.22,0-.42,0-.47-.2a.36.36,0,0,1,.24-.48.36.36,0,0,1,.23.68Z"/><path class="cls-5" d="M133.61,102.26a.28.28,0,0,1-.38-.25c0-.2,0-.43.3-.45a.34.34,0,0,1,.39.31A.33.33,0,0,1,133.61,102.26Z"/><path class="cls-5" d="M129,103.33a.28.28,0,0,1-.37-.24.36.36,0,0,1,.28-.46.34.34,0,0,1,.4.29A.33.33,0,0,1,129,103.33Z"/><path class="cls-5" d="M116.09,123.49c-.26,0-.43,0-.47-.27s0-.4.28-.44.37.06.38.29S116.27,123.44,116.09,123.49Z"/><path class="cls-5" d="M112.3,118.74c.06.2,0,.35-.18.4s-.4.07-.47-.15a.31.31,0,0,1,.22-.43A.3.3,0,0,1,112.3,118.74Z"/><path class="cls-5" d="M118.53,105.77c0,.17,0,.39-.19.45a.34.34,0,0,1-.48-.24.33.33,0,0,1,.23-.43C118.3,105.47,118.44,105.57,118.53,105.77Z"/><path class="cls-5" d="M113.08,120.43a.35.35,0,0,1-.23.44c-.27.09-.37-.15-.44-.31s.11-.29.26-.35S113,120.27,113.08,120.43Z"/><path class="cls-5" d="M118.68,124c.07.23,0,.37-.21.39a.38.38,0,0,1-.43-.26.34.34,0,0,1,.25-.38C118.53,123.65,118.61,123.84,118.68,124Z"/><path class="cls-5" d="M131.81,102.34c.18,0,.34,0,.4.21a.34.34,0,0,1-.22.45.26.26,0,0,1-.37-.21A.32.32,0,0,1,131.81,102.34Z"/><path class="cls-5" d="M116,107.52c.16,0,.34,0,.37.24s0,.41-.26.45a.3.3,0,0,1-.38-.21A.42.42,0,0,1,116,107.52Z"/><path class="cls-5" d="M127.66,103.73c0,.15,0,.3-.27.35s-.31-.08-.34-.26,0-.39.24-.41A.31.31,0,0,1,127.66,103.73Z"/><path class="cls-5" d="M123.08,104.68c0,.2,0,.37-.21.45a.26.26,0,0,1-.37-.2c0-.18,0-.38.19-.44A.31.31,0,0,1,123.08,104.68Z"/><path class="cls-5" d="M112,114.37a.32.32,0,0,1,.44.27c0,.19.06.37-.19.43s-.4,0-.45-.27S111.78,114.44,112,114.37Z"/><path class="cls-5" d="M119.48,124.17a.39.39,0,0,1,.41.2.35.35,0,0,1-.2.45.27.27,0,0,1-.38-.18A.39.39,0,0,1,119.48,124.17Z"/><path class="cls-5" d="M115.71,109.42c-.17,0-.33,0-.37-.23s0-.33.16-.4a.32.32,0,0,1,.43.23C116,109.19,115.86,109.32,115.71,109.42Z"/><path class="cls-5" d="M135.1,102.31a.36.36,0,0,1-.28.36.25.25,0,0,1-.31-.23.29.29,0,0,1,.26-.35C134.93,102.07,135,102.2,135.1,102.31Z"/><path class="cls-5" d="M121.17,105.88a.31.31,0,0,1-.36-.26c0-.17,0-.27.2-.32a.28.28,0,0,1,.39.19C121.45,105.67,121.31,105.79,121.17,105.88Z"/><path class="cls-5" d="M125.72,104.8a.25.25,0,0,1-.32-.2.3.3,0,0,1,.22-.38.3.3,0,0,1,.33.21C126,104.61,125.89,104.73,125.72,104.8Z"/><path class="cls-5" d="M119.13,106.42a.34.34,0,0,1,.26-.35.21.21,0,0,1,.29.21c0,.15,0,.34-.23.35S119.17,106.63,119.13,106.42Z"/><path class="cls-5" d="M114.17,112.47a.36.36,0,0,1,.38.23c.06.16,0,.28-.19.32s-.33,0-.38-.21S114,112.54,114.17,112.47Z"/><path class="cls-5" d="M114.27,120.92a.32.32,0,0,1-.29.33.22.22,0,0,1-.31-.18.29.29,0,0,1,.2-.39A.37.37,0,0,1,114.27,120.92Z"/><path class="cls-5" d="M112.71,117.55c0,.19,0,.37-.22.38s-.3,0-.3-.2,0-.36.18-.41A.26.26,0,0,1,112.71,117.55Z"/><path class="cls-5" d="M115,111.44c0,.19,0,.34-.2.38s-.3-.07-.37-.24,0-.27.19-.32A.28.28,0,0,1,115,111.44Z"/><path class="cls-5" d="M114.07,113.91c0,.17-.07.32-.25.36s-.26-.11-.3-.24a.26.26,0,0,1,.17-.34C113.88,113.64,114,113.76,114.07,113.91Z"/><path class="cls-5" d="M112.94,116.68c-.15,0-.26-.05-.31-.23a.24.24,0,0,1,.2-.32.31.31,0,0,1,.36.24C113.23,116.54,113.14,116.63,112.94,116.68Z"/><path class="cls-5" d="M112.92,119.38c0-.19,0-.31.21-.34s.29.07.32.25,0,.24-.16.26S113,119.53,112.92,119.38Z"/><path class="cls-5" d="M115.41,110.23c0,.15,0,.33-.14.37a.32.32,0,0,1-.38-.23.27.27,0,0,1,.23-.36A.23.23,0,0,1,115.41,110.23Z"/><path class="cls-5" d="M130.52,103.35a.34.34,0,0,1-.22.38c-.17.06-.28,0-.33-.19a.29.29,0,0,1,.14-.36C130.29,103.08,130.4,103.23,130.52,103.35Z"/><path class="cls-5" d="M115.43,121.42c0,.16,0,.3-.17.31a.31.31,0,0,1-.36-.26c0-.19.11-.24.25-.28S115.39,121.27,115.43,121.42Z"/><path class="cls-5" d="M124.06,105.56c-.2,0-.24-.11-.27-.25s-.05-.3.15-.32.3.05.31.23A.32.32,0,0,1,124.06,105.56Z"/><path class="cls-5" d="M113.61,115.05c0,.21,0,.39-.23.4s-.29,0-.31-.21a.32.32,0,0,1,.22-.32A.26.26,0,0,1,113.61,115.05Z"/><path class="cls-5" d="M118.07,107.05c0,.16,0,.29-.19.34a.25.25,0,0,1-.36-.21c0-.15,0-.31.17-.35S118,106.92,118.07,107.05Z"/><path class="cls-5" d="M128.81,104.1c0,.16,0,.31-.16.37s-.26,0-.29-.2-.08-.29.12-.33A.27.27,0,0,1,128.81,104.1Z"/><path class="cls-5" d="M116.32,121.64c.19,0,.31.06.35.22a.27.27,0,0,1-.21.33c-.17,0-.26,0-.29-.22S116.17,121.69,116.32,121.64Z"/><path class="cls-5" d="M118.77,126c-.11-.47.07-.65.5-.71A1.37,1.37,0,0,1,118.77,126Z"/><path class="cls-5" d="M120.9,106.77a.22.22,0,0,1-.19.27c-.13,0-.26,0-.3-.13s.1-.26.22-.31S120.86,106.65,120.9,106.77Z"/><path class="cls-5" d="M117.55,122.12a.25.25,0,1,1,.14.47c-.13,0-.27,0-.3-.11A.31.31,0,0,1,117.55,122.12Z"/><path class="cls-5" d="M118,126.76l.11-.2c.14,0,.32,0,.19.22S118.1,126.92,118,126.76Z"/><path class="cls-5" d="M135.88,99.14l.15.07C136,99.25,135.9,99.24,135.88,99.14Z"/><path class="cls-5" d="M117.8,126.82l.12-.07Z"/><path class="cls-5" d="M139,97l0-.2C139.13,96.8,139.18,96.86,139,97Z"/><path class="cls-7" d="M92.88,33.27c17.47-1.68,35,2.56,51.62,8C159.94,46.4,175.68,53.08,186,65.66c5.67,6.93,9.33,17.07,4.71,24.74-3.84,6.37-11.87,8.65-19.19,9.93-47,8.23-96.3-2.53-142.45,9.54-7,1.85-15.44,6.33-14.67,13.58.57,5.39,6.1,8.7,11.13,10.72a102.3,102.3,0,0,0,71.45,1.5"/><path class="cls-7" d="M26.31,140.13a86.85,86.85,0,0,0,44.58,5.94"/><path class="cls-7" d="M181.47,72.56A8.26,8.26,0,0,1,182.93,87"/><path class="cls-7" d="M180.19,54.47c13.87,4.37,23.54,19.35,21.83,33.79"/></g></g></svg>